<?xml version="1.0" encoding="UTF-8" standalone="no"?>
<svg
   xmlns:osb="http://www.openswatchbook.org/uri/2009/osb"
   xmlns:dc="http://purl.org/dc/elements/1.1/"
   xmlns:cc="http://creativecommons.org/ns#"
   xmlns:rdf="http://www.w3.org/1999/02/22-rdf-syntax-ns#"
   xmlns:svg="http://www.w3.org/2000/svg"
   xmlns="http://www.w3.org/2000/svg"
   xmlns:xlink="http://www.w3.org/1999/xlink"
   xmlns:sodipodi="http://sodipodi.sourceforge.net/DTD/sodipodi-0.dtd"
   xmlns:inkscape="http://www.inkscape.org/namespaces/inkscape"
   height="512"
   viewBox="0 0 60 60"
   width="512"
   version="1.1"
   id="svg27"
   sodipodi:docname="fish-tank_light.svg"
   inkscape:version="0.92.5 (2060ec1f9f, 2020-04-08)">
  <metadata
     id="metadata33">
    <rdf:RDF>
      <cc:Work
         rdf:about="">
        <dc:format>image/svg+xml</dc:format>
        <dc:type
           rdf:resource="http://purl.org/dc/dcmitype/StillImage" />
        <dc:title></dc:title>
      </cc:Work>
    </rdf:RDF>
  </metadata>
  <defs
     id="defs31">
    <linearGradient
       id="linearGradient845"
       osb:paint="solid">
      <stop
         style="stop-color:#ffffff;stop-opacity:1;"
         offset="0"
         id="stop843" />
    </linearGradient>
    <linearGradient
       inkscape:collect="always"
       xlink:href="#linearGradient845"
       id="linearGradient847"
       x1="0"
       y1="30"
       x2="60"
       y2="30"
       gradientUnits="userSpaceOnUse" />
  </defs>
  <sodipodi:namedview
     pagecolor="#ffffff"
     bordercolor="#666666"
     borderopacity="1"
     objecttolerance="10"
     gridtolerance="10"
     guidetolerance="10"
     inkscape:pageopacity="0"
     inkscape:pageshadow="2"
     inkscape:window-width="1920"
     inkscape:window-height="1016"
     id="namedview29"
     showgrid="false"
     inkscape:zoom="0.4609375"
     inkscape:cx="-132.33898"
     inkscape:cy="256"
     inkscape:window-x="1920"
     inkscape:window-y="27"
     inkscape:window-maximized="1"
     inkscape:current-layer="svg27" />
  <g
     id="045---Office-Acquarium"
     style="fill-opacity:1;fill:url(#linearGradient847)">
    <path
       id="Shape"
       d="m51.3 0h-6.3c-1.6568542 0-3 1.34314575-3 3 0 .55228475-.4477153 1-1 1h-38c-1.65685425 0-3 1.34314575-3 3v49c0 2.209139 1.790861 4 4 4s4-1.790861 4-4v-4h44v4c0 2.209139 1.790861 4 4 4s4-1.790861 4-4v-47.3c0-4.80487732-3.8951227-8.7-8.7-8.7zm-49.3 50v-4h56v4zm56-6h-10.08c-.1635227-1.0191819-.473388-2.0094038-.92-2.94.13-2.12.62-2.88 2-4.79 1.9517867-2.3121115 3.0154446-5.2442617 3-8.27 0-.5522847-.4477153-1-1-1s-1 .4477153-1 1c0 5.34-3.15 6.81-4.48 10.22-.9250633-1.5898846-1.4469141-3.3820301-1.52-5.22 0-4.49 4-7.81 4-12 0-.5522847-.4477153-1-1-1s-1 .4477153-1 1c0 2.51-1.86 4.64-3.09 7.67-.91-1.83-1.91-3.14-1.91-4.67 0-.5522847-.4477153-1-1-1s-1 .4477153-1 1c0 3.33 3 5.34 3 9 0 4.79 3.29 7.78 3.9 11h-34.36c1.39-1.16 4.46-2 4.46-7 0-.5522847-.4477153-1-1-1s-1 .4477153-1 1c0 3.39-1.65 4-3.35 5.16-.8-3.06-2.65-4.31-2.65-7.16 0-3.43 1.91-2.83 2-7.71l.41-.23c2.3393035-1.0781478 3.7683329-3.4903812 3.59-6.06 0-.5522847-.4477153-1-1-1s-1 .4477153-1 1c.1757551 1.6541919-.6605159 3.2517851-2.12 4.05-.45-3.57-1.88-4.18-1.88-10.05 0-.5522847-.44771525-1-1-1s-1 .4477153-1 1c0 7.12 2 7.29 2 12s-2 3.65-2 8c0 4 2.57 5.16 3 9h-7v-32h56zm-14-41c0-.55228475.4477153-1 1-1h6.3c1.7936075.00132147 3.5117978.72173669 4.77 2h-12.25c.1164225-.32067401.1772954-.65885676.18-1zm-42 4c0-.55228475.44771525-1 1-1h54.43c.5038416 1.26944497.6991952 2.64034727.57 4h-56zm4 49c0 1.1045695-.8954305 2-2 2s-2-.8954305-2-2v-4h4zm52 0c0 1.1045695-.8954305 2-2 2s-2-.8954305-2-2v-4h4z"
       style="fill-opacity:1;fill:url(#linearGradient847)" />
    <path
       id="path3"
       d="m13 29c0 4.19 9.25 5.32 12.81 2.29.7136353 1.0641004 1.9087672 1.7047511 3.19 1.71.5522847 0 1-.4477153 1-1s-.4477153-1-1-1c-1.0618449-.0969059-1.9030941-.9381551-2-2 .0969059-1.0618449.9381551-1.9030941 2-2 .5522847 0 1-.4477153 1-1s-.4477153-1-1-1c-1.2812328.0052489-2.4763647.6458996-3.19 1.71-3.58-3.04-12.81-1.88-12.81 2.29zm12 0c0 .82-1.95 2-5 2-.35 0-.68 0-1-.05v-3.9c.32 0 .65-.05 1-.05 3.05 0 5 1.18 5 2zm-8-1.55v3.1c-1.26-.42-2-1.05-2-1.55s.74-1.13 2-1.55z"
       style="fill-opacity:1;fill:url(#linearGradient847)" />
    <path
       id="path5"
       d="m24 34c-.5522847 0-1 .4477153-1 1s.4477153 1 1 1c1.0618449.0969059 1.9030941.9381551 2 2-.0969059 1.0618449-.9381551 1.9030941-2 2-.5522847 0-1 .4477153-1 1s.4477153 1 1 1c1.2812328-.0052489 2.4763647-.6458996 3.19-1.71 3.58 3.04 12.81 1.88 12.81-2.29s-9.25-5.32-12.81-2.29c-.7136353-1.0641004-1.9087672-1.7047511-3.19-1.71zm14 4c0 .5-.74 1.13-2 1.55v-3.1c1.26.42 2 1.05 2 1.55zm-5-2h1v4c-.32 0-.65 0-1 0-3.05 0-5-1.18-5-2s2-2 5-2z"
       style="fill-opacity:1;fill:url(#linearGradient847)" />
    <circle
       id="Oval"
       cx="54"
       cy="34"
       r="1"
       style="fill-opacity:1;fill:url(#linearGradient847)" />
    <circle
       id="circle8"
       cx="55"
       cy="38"
       r="1"
       style="fill-opacity:1;fill:url(#linearGradient847)" />
    <circle
       id="circle10"
       cx="53"
       cy="41"
       r="1"
       style="fill-opacity:1;fill:url(#linearGradient847)" />
    <circle
       id="circle12"
       cx="56"
       cy="30"
       r="1"
       style="fill-opacity:1;fill:url(#linearGradient847)" />
    <circle
       id="circle14"
       cx="53"
       cy="25"
       r="1"
       style="fill-opacity:1;fill:url(#linearGradient847)" />
    <circle
       id="circle16"
       cx="55"
       cy="21"
       r="1"
       style="fill-opacity:1;fill:url(#linearGradient847)" />
    <circle
       id="circle18"
       cx="53"
       cy="17"
       r="1"
       style="fill-opacity:1;fill:url(#linearGradient847)" />
    <circle
       id="circle20"
       cx="23"
       cy="23"
       r="1"
       style="fill-opacity:1;fill:url(#linearGradient847)" />
    <circle
       id="circle22"
       cx="21"
       cy="19"
       r="1"
       style="fill-opacity:1;fill:url(#linearGradient847)" />
    <circle
       id="circle24"
       cx="23"
       cy="15"
       r="1"
       style="fill-opacity:1;fill:url(#linearGradient847)" />
  </g>
</svg>
